{"title":"RoboCop 2014 Cropped CAMRip XviD-PsiX","uid":9647030,"size":821860922,"categoryP":"video","categoryS":"movies","magnet":"?xt=urn:btih:54173fa9d53626c0ff6b847ea2c97f47482f2413&amp;dn=RoboCop+2014+Cropped+CAMRip+XviD-PsiX&amp;tr=udp%3A%2F%2Ftracker.openbittorrent.com%3A80&amp;tr=udp%3A%2F%2Fopen.demonii.com%3A1337&amp;tr=udp%3A%2F%2Ftracker.coppersurfer.tk%3A6969&amp;tr=udp%3A%2F%2Fexodus.desync.com%3A6969","seeders":2,"leechers":0,"uploader":"sakhslitsa","files":2,"time":1393021763,"description":"Encoded...........: PsiX\nFilters......brightness/contrast/sharpen/...\n\nSample............: Yes\nSource...........: 720p.cam.fecktards (Thanks)\n\n\n\n\nFormat : AVI\nFormat/Info : Audio Video Interleave\nFile size : 780 MiB\nDuration : 1h 50mn\nOverall bit rate mode : Variable\nOverall bit rate : 991 Kbps\n\nVideo\nID : 0\nFormat : MPEG-4 Visual\nFormat profile : Advanced Simple@L5\nFormat settings, BVOP : 2\nFormat settings, QPel : No\nFormat settings, GMC : No warppoints\nFormat settings, Matrix : Default (H.263)\nCodec ID : XVID\nCodec ID/Hint : XviD\nDuration : 1h 50mn\nBit rate : 876 Kbps\nWidth : 640 pixels\nHeight : 264 pixels\nDisplay aspect ratio : 2.40:1\nFrame rate : 24.000 fps\nColor space : YUV\nChroma subsampling : 4:2:0\nBit depth : 8 bits\nScan type : Progressive\nCompression mode : Lossy\nBits/(Pixel*Frame) : 0.216\nStream size : 689 MiB (88%)\nWriting library : XviD 1.2.1 (UTC 2008-12-04)\n\nAudio\nID : 1\nFormat : MPEG Audio\nFormat version : Version 1\nFormat profile : Layer 3\nMode : Joint stereo\nMode extension : MS Stereo\nCodec ID : 55\nCodec ID/Hint : MP3\nDuration : 1h 50mn\nBit rate mode : Variable\nBit rate : 102 Kbps\nNominal bit rate : 112 Kbps\nChannel(s) : 2 channels\nSampling rate : 44.1 KHz\nCompression mode : Lossy\nStream size : 80.5 MiB (10%)\nAlignment : Aligned on interleaves\nInterleave, duration : 26 ms (0.63 video frame)\nInterleave, preload duration : 171 ms\nTitle : RoboCop 2014 CAM\nWriting library : LAME3.99r\nEncoding settings : -m j -V 4 -q 2 -lowpass 15.6 --abr 112","torrent":{"xt":"urn:btih:54173fa9d53626c0ff6b847ea2c97f47482f2413","amp;dn":"RoboCop+2014+Cropped+CAMRip+XviD-PsiX","amp;tr":["udp%3A%2F%2Ftracker.openbittorrent.com%3A80","udp%3A%2F%2Fopen.demonii.com%3A1337","udp%3A%2F%2Ftracker.coppersurfer.tk%3A6969","udp%3A%2F%2Fexodus.desync.com%3A6969"],"infoHash":"54173fa9d53626c0ff6b847ea2c97f47482f2413","infoHashBuffer":{"type":"Buffer","data":[84,23,63,169,213,54,38,192,255,107,132,126,162,201,127,71,72,47,36,19]},"announce":[],"urlList":[]}}